<?xml version="1.0" standalone="no"?>
<!DOCTYPE svg PUBLIC "-//W3C//DTD SVG 20010904//EN"
 "http://www.w3.org/TR/2001/REC-SVG-20010904/DTD/svg10.dtd">
<svg version="1.0" xmlns="http://www.w3.org/2000/svg"
 width="474.000000pt" height="474.000000pt" viewBox="0 0 474.000000 474.000000"
 preserveAspectRatio="xMidYMid meet">
<metadata>
Created by potrace 1.16, written by Peter Selinger 2001-2019
</metadata>
<g transform="translate(0.000000,474.000000) scale(0.100000,-0.100000)"
fill="#000000" stroke="none">
<path d="M2470 4248 c-39 -14 -60 -39 -60 -70 0 -27 -8 -32 -134 -93 -74 -36
-137 -65 -139 -65 -6 0 -220 -101 -226 -106 -2 -2 -2 -6 1 -9 5 -6 58 14 68
25 3 3 21 13 40 22 19 9 69 32 110 51 41 19 100 45 130 57 30 13 62 29 70 35
15 12 88 35 109 35 6 0 11 -6 11 -14 0 -8 7 -17 16 -20 27 -10 89 -7 102 6 9
9 22 5 58 -21 25 -18 48 -30 51 -27 7 7 -49 55 -64 56 -7 0 -18 10 -25 23 -12
23 -14 28 -17 62 -1 11 -5 26 -9 33 -13 19 -64 30 -92 20z"/>
<path d="M945 4033 c-69 -16 -182 -88 -218 -140 -16 -23 -40 -74 -54 -114 -33
-96 -29 -202 12 -282 l26 -53 -33 -69 c-30 -63 -33 -79 -33 -160 0 -79 4 -97
28 -148 l29 -58 -40 -43 c-69 -75 -122 -198 -122 -284 0 -87 55 -259 94 -291
13 -11 10 -20 -23 -71 -72 -110 -95 -198 -89 -332 5 -110 25 -168 82 -236 15
-16 26 -32 26 -35 0 -3 -14 -28 -31 -56 -45 -72 -72 -171 -77 -279 -3 -81 0
-105 23 -175 37 -114 66 -152 192 -248 52 -39 95 -62 155 -82 95 -31 105 -32
173 -12 81 25 111 42 158 95 25 28 54 50 64 50 11 0 47 -11 81 -25 103 -42
232 -33 327 22 104 60 93 59 191 22 82 -32 97 -34 204 -34 113 0 116 1 191 38
85 42 106 43 165 3 22 -14 86 -41 144 -61 97 -33 114 -36 230 -37 131 -2 208
9 350 48 46 13 87 24 91 24 4 0 32 -20 62 -45 31 -25 61 -45 67 -45 6 0 8 -5
4 -12 -5 -8 -2 -9 9 -5 10 3 17 3 17 -1 0 -13 71 -49 131 -66 147 -42 277 -40
374 5 54 25 156 101 194 145 76 88 97 258 44 356 -15 29 -42 66 -59 84 -17 18
-29 41 -27 51 14 82 14 140 -2 232 -18 106 -17 133 9 241 19 80 20 184 2 268
-14 63 -14 65 16 130 29 64 39 121 40 222 0 67 -19 200 -37 253 l-16 47 37 81
c23 51 38 103 41 140 5 55 9 62 47 91 109 85 155 170 163 302 7 102 -13 174
-69 258 -47 70 -132 158 -152 158 -9 0 -16 4 -16 9 0 5 -24 18 -52 28 -139 48
-393 -2 -493 -97 l-30 -29 -60 14 c-54 13 -68 12 -135 -3 -75 -18 -75 -17
-115 4 -62 35 -161 63 -251 74 -61 6 -94 16 -124 35 -46 29 -66 26 -29 -4 13
-11 22 -21 19 -24 -3 -3 -30 -7 -60 -10 -64 -6 -133 -22 -212 -49 -42 -15 -61
-17 -76 -9 -11 6 -63 22 -117 36 -116 30 -275 34 -369 10 -33 -9 -61 -14 -63
-11 -2 2 -31 -9 -64 -25 -70 -34 -89 -36 -89 -10 0 13 9 21 29 26 16 3 35 13
42 21 15 19 10 18 -53 -7 l-53 -21 -40 20 c-101 51 -116 55 -226 54 -78 0
-116 -4 -140 -16 -18 -9 -35 -16 -39 -16 -3 0 -27 19 -51 43 -25 24 -67 54
-95 67 -61 30 -173 40 -249 23z m257 -83 c18 0 97 -82 100 -104 4 -28 32 -32
65 -8 75 52 250 47 350 -9 28 -16 53 -33 55 -37 2 -4 20 -16 41 -26 37 -19 38
-19 77 3 129 72 343 97 474 54 38 -13 78 -23 87 -23 10 0 25 -13 34 -30 19
-37 30 -37 88 -4 25 14 88 37 139 51 76 21 115 26 213 26 105 0 131 -3 204
-28 48 -16 95 -39 110 -53 l25 -25 62 16 c77 21 173 22 221 2 52 -22 70 -19
76 13 9 38 80 78 188 105 73 18 104 21 176 16 118 -8 177 -40 250 -135 62 -80
68 -98 68 -198 -1 -117 -26 -178 -99 -242 -49 -43 -51 -44 -66 -25 -8 11 -22
21 -30 23 -12 2 -15 -16 -15 -112 0 -86 -4 -123 -16 -145 -9 -16 -26 -49 -38
-72 -13 -24 -27 -43 -32 -43 -13 0 -11 -37 2 -46 14 -8 37 -63 43 -100 28
-184 29 -220 11 -290 -19 -71 -49 -133 -72 -147 -15 -10 -17 -44 -3 -49 23 -7
39 -85 39 -183 0 -85 -3 -109 -25 -160 -37 -87 -38 -95 -21 -108 20 -15 42
-180 33 -252 -6 -50 -8 -66 -21 -137 -7 -36 -7 -37 42 -62 28 -13 58 -37 68
-52 52 -79 12 -237 -79 -316 -90 -78 -102 -85 -178 -117 -81 -34 -206 -30
-328 10 -116 39 -136 51 -240 147 -57 52 -58 52 -86 38 -107 -56 -212 -76
-401 -76 -136 0 -175 6 -258 39 -35 14 -149 71 -177 89 -25 15 -30 15 -50 2
-13 -8 -38 -22 -56 -31 -18 -10 -39 -23 -47 -29 -8 -7 -49 -14 -92 -17 -42 -2
-80 -6 -85 -9 -11 -7 -102 13 -146 32 -18 8 -41 14 -50 14 -10 0 -26 13 -35
30 -22 37 -40 38 -69 4 -55 -63 -195 -126 -245 -110 -10 3 -24 2 -32 -3 -17
-11 -78 8 -163 49 -73 36 -98 34 -98 -5 0 -40 -78 -110 -144 -129 -60 -18
-152 -21 -161 -7 -3 5 -19 12 -35 16 -40 9 -136 67 -178 108 -71 69 -118 197
-109 297 10 111 79 263 130 288 15 7 27 18 27 24 0 6 -24 38 -53 72 -85 96
-120 223 -92 330 21 81 82 192 122 224 40 33 41 45 6 80 -60 60 -77 95 -102
203 -17 75 -3 149 45 235 35 63 67 99 106 118 33 17 33 38 -2 77 -51 56 -62
94 -58 185 4 73 8 89 41 144 20 34 37 66 37 71 0 5 -14 34 -31 64 -43 76 -49
150 -20 240 53 163 142 232 316 245 76 5 95 3 123 -12 18 -10 38 -18 44 -18z"/>
<path d="M888 3603 c-1 -70 -2 -139 -1 -153 0 -14 -3 -124 -8 -245 -7 -217
-11 -317 -29 -910 -5 -165 -15 -443 -21 -617 -6 -175 -9 -324 -5 -333 4 -13 9
-13 25 -3 15 9 122 7 492 -11 261 -12 569 -24 684 -27 116 -2 377 -13 580 -24
204 -10 471 -22 595 -25 124 -4 241 -8 260 -10 19 -1 111 -4 205 -6 l169 -4 7
40 c4 22 9 166 13 320 3 154 10 363 16 465 5 102 14 266 20 366 5 99 12 256
15 350 6 182 41 819 47 844 4 21 -64 27 -307 29 -110 1 -249 3 -310 6 -265 13
-997 35 -1290 40 -361 6 -936 22 -1067 30 l-88 6 -2 -128z m612 73 c223 -3
515 -10 650 -15 396 -16 641 -23 1240 -37 168 -3 328 -8 355 -9 28 -2 77 -4
110 -4 l61 -1 -7 -72 c-4 -40 -8 -120 -8 -178 -1 -58 -5 -184 -11 -280 -23
-399 -30 -543 -35 -685 -3 -82 -15 -314 -26 -515 -11 -201 -24 -421 -27 -489
l-7 -125 -125 3 c-68 1 -127 4 -131 6 -3 2 -88 6 -190 9 -101 2 -272 9 -379
15 -107 5 -294 12 -415 15 -121 3 -348 12 -505 21 -157 8 -370 17 -475 20
-104 2 -226 7 -270 9 -44 3 -164 8 -268 12 l-187 6 5 117 c3 64 10 269 15 456
6 187 12 390 15 450 3 61 7 205 10 320 3 116 7 278 10 360 2 83 7 251 11 375
3 124 10 227 15 231 5 3 44 2 86 -2 43 -4 260 -10 483 -13z"/>
<path d="M1127 3498 c-23 -17 -24 -46 -32 -978 -3 -382 -8 -744 -11 -804 -5
-126 4 -149 60 -140 17 3 36 5 41 5 128 0 865 -12 985 -16 91 -3 291 -8 445
-11 154 -3 283 -8 287 -10 4 -3 159 -7 345 -10 186 -2 346 -7 356 -10 9 -3 19
0 21 8 3 7 7 175 10 373 3 198 7 369 10 381 2 11 7 92 10 180 4 87 9 197 11
244 3 47 7 166 10 265 3 99 7 249 11 332 l5 153 -368 0 c-202 0 -404 2 -448 5
-44 2 -217 7 -385 10 -168 3 -352 8 -410 10 -58 2 -222 7 -365 10 -143 3 -330
8 -415 11 -123 5 -159 3 -173 -8z m873 -43 c71 -4 492 -13 970 -21 206 -4 386
-8 400 -9 14 -1 85 -3 158 -3 l134 -2 -6 -72 c-3 -40 -8 -165 -12 -278 -9
-300 -13 -423 -19 -535 -3 -55 -10 -217 -16 -360 -6 -143 -14 -263 -18 -266
-3 -4 -40 2 -81 12 -124 31 -266 35 -395 10 -60 -11 -135 -21 -165 -21 -50 0
-63 5 -115 43 -69 49 -138 84 -183 93 -36 7 -38 12 -17 40 25 33 18 57 -27 84
-22 14 -60 36 -82 50 -69 42 -146 104 -138 111 6 7 181 84 407 179 50 21 122
52 160 70 70 32 106 48 158 68 24 10 38 32 21 32 -9 0 -197 -81 -209 -90 -24
-18 -116 -43 -124 -34 -11 12 -47 155 -56 219 -6 46 -42 200 -82 350 -9 33
-17 74 -19 90 -6 54 -48 175 -61 175 -7 0 -13 -5 -13 -10 0 -6 -24 -34 -53
-63 -29 -29 -75 -81 -102 -117 -27 -36 -56 -71 -63 -79 -13 -13 -66 -123 -90
-186 -60 -156 -53 -364 16 -500 11 -22 17 -41 13 -43 -9 -3 -98 55 -161 106
-25 20 -49 40 -55 44 -71 56 -91 68 -108 68 -17 0 -19 -5 -14 -47 6 -51 6 -54
32 -155 16 -66 96 -260 117 -285 16 -20 8 -23 -71 -24 -40 -1 -96 -7 -124 -15
-60 -16 -164 -18 -224 -4 -154 36 -322 8 -439 -72 -40 -27 -80 -58 -89 -68
-10 -11 -23 -20 -28 -20 -7 0 -8 161 -4 483 4 265 7 614 7 776 l0 294 408 -7
c224 -4 432 -9 462 -11z m597 -167 c7 -24 27 -106 44 -183 17 -77 37 -165 44
-195 64 -281 76 -343 72 -354 -3 -7 -38 -21 -79 -30 -81 -20 -239 -93 -278
-128 -35 -32 -53 -32 -72 0 -32 55 -68 164 -77 240 -11 90 -6 146 20 223 10
30 19 62 19 71 0 20 56 131 96 192 43 64 172 206 187 206 7 0 18 -19 24 -42z
m-527 -779 c41 -33 91 -71 110 -84 19 -13 58 -40 85 -59 28 -20 113 -78 191
-130 77 -52 146 -102 154 -110 21 -26 -20 -62 -79 -69 -26 -3 -65 -15 -87 -27
-30 -18 -42 -20 -57 -11 -9 6 -55 17 -100 23 -75 10 -85 14 -119 49 -20 21
-51 69 -68 106 -18 37 -38 79 -45 93 -7 14 -20 52 -30 85 -9 33 -22 84 -30
113 -17 59 -19 82 -7 82 4 0 41 -27 82 -61z m-365 -458 c45 -8 85 -8 150 0
185 22 238 25 263 12 13 -7 31 -13 38 -13 21 0 17 -17 -8 -35 -23 -16 -23 -16
-3 -31 18 -13 21 -13 35 5 24 32 87 37 162 11 l65 -22 54 27 c46 24 61 27 119
22 78 -6 151 -37 237 -100 l61 -46 79 3 c43 2 123 10 177 19 123 21 180 21
304 1 148 -24 146 -22 150 -129 2 -50 0 -118 -3 -153 l-7 -64 -361 8 c-199 5
-427 9 -507 10 -234 4 -573 14 -605 18 -16 2 -158 6 -315 10 -157 4 -359 9
-450 11 -91 3 -177 5 -192 5 l-26 0 -1 125 -2 126 53 50 c29 27 81 65 115 84
56 32 84 41 193 63 38 8 131 1 225 -17z"/>
<path d="M1676 3258 c-63 -22 -70 -26 -116 -69 -33 -30 -87 -42 -174 -39 -103
3 -173 -48 -145 -103 18 -35 41 -57 58 -57 10 0 36 -18 59 -40 34 -31 54 -41
92 -46 45 -6 49 -8 55 -40 4 -22 18 -43 42 -61 32 -25 42 -27 123 -26 123 2
192 41 229 130 10 26 16 28 47 25 51 -6 123 25 167 70 32 34 37 46 37 87 0 41
-5 52 -35 81 -27 26 -45 35 -82 38 -31 2 -57 12 -75 27 -58 49 -181 59 -282
23z m191 -7 c18 -5 49 -22 69 -37 25 -20 51 -29 83 -32 64 -4 101 -40 101 -99
0 -49 -17 -71 -82 -104 -30 -15 -59 -22 -95 -21 -56 1 -67 -6 -77 -55 -16 -70
-136 -115 -252 -94 -58 11 -76 29 -83 83 l-6 43 -65 5 c-59 5 -66 8 -85 37
-12 19 -31 33 -49 37 -41 9 -56 24 -56 56 0 25 6 30 49 45 45 15 53 15 86 1
49 -21 62 -20 68 4 5 21 41 28 52 10 10 -16 19 -12 37 19 20 35 76 72 138 90
25 7 50 15 55 16 22 7 82 5 112 -4z"/>
</g>
</svg>
