<?xml version="1.0" standalone="no"?>
<!DOCTYPE svg PUBLIC "-//W3C//DTD SVG 20010904//EN"
 "http://www.w3.org/TR/2001/REC-SVG-20010904/DTD/svg10.dtd">
<svg version="1.0" xmlns="http://www.w3.org/2000/svg"
 width="182.000000pt" height="180.000000pt" viewBox="0 0 182.000000 180.000000"
 preserveAspectRatio="xMidYMid meet">
<metadata>
Created by potrace 1.16, written by Peter Selinger 2001-2019
</metadata>
<g transform="translate(0.000000,180.000000) scale(0.100000,-0.100000)"
fill="#000000" stroke="none">
<path d="M866 1591 c-27 -47 -68 -117 -91 -156 -63 -106 -559 -954 -588 -1005
-50 -89 -167 -285 -177 -297 -9 -10 172 -13 901 -13 l911 0 -14 23 c-8 12 -26
42 -40 67 -14 25 -140 241 -278 480 -139 239 -320 552 -403 695 -82 143 -155
267 -161 276 -9 14 -19 2 -60 -70z m80 -608 c15 -27 79 -133 142 -238 62 -104
129 -215 148 -247 19 -31 34 -59 34 -62 0 -3 -160 -6 -356 -6 -319 0 -356 2
-350 16 8 20 346 584 351 584 2 0 15 -21 31 -47z"/>
</g>
</svg>
