<?xml version="1.0" standalone="no"?>
<!DOCTYPE svg PUBLIC "-//W3C//DTD SVG 20010904//EN"
 "http://www.w3.org/TR/2001/REC-SVG-20010904/DTD/svg10.dtd">
<svg version="1.0" xmlns="http://www.w3.org/2000/svg"
 width="288.000000pt" height="180.000000pt" viewBox="0 0 288.000000 180.000000"
 preserveAspectRatio="xMidYMid meet">
<metadata>
Created by potrace 1.16, written by Peter Selinger 2001-2019
</metadata>
<g transform="translate(0.000000,180.000000) scale(0.100000,-0.100000)"
fill="#000000" stroke="none">
<path d="M2323 1051 c-9 -119 -17 -169 -28 -181 -12 -13 -15 -44 -15 -143 l0
-126 -42 -5 c-134 -16 -195 -17 -208 -1 -10 12 -10 21 -2 38 6 12 18 98 27
191 14 157 14 170 -1 187 -10 11 -23 19 -31 19 -7 0 -13 5 -13 12 0 6 -3 9 -6
5 -3 -3 -27 1 -52 9 -97 30 -262 59 -322 56 -19 -1 -147 -55 -272 -116 -163
-80 -115 -91 207 -51 90 11 337 33 445 39 21 1 25 -3 23 -24 -3 -54 -24 -278
-29 -326 l-6 -51 -160 -13 c-116 -9 -161 -17 -165 -26 -3 -8 -16 -14 -28 -14
-13 0 -27 -5 -31 -12 -5 -8 -2 -9 10 -5 10 4 24 1 32 -8 14 -13 13 -15 -10
-15 -14 0 -26 -4 -26 -10 0 -5 -7 -7 -16 -3 -14 5 -16 1 -12 -20 7 -36 -18
-59 -37 -34 -19 27 -27 20 -9 -8 9 -14 21 -22 27 -18 5 3 7 1 4 -4 -5 -8 29
-61 56 -90 2 -1 -1 127 -3 137 0 3 -8 -11 -17 -30 -13 -28 -17 -31 -21 -16 -2
10 1 22 8 26 6 4 10 13 8 20 -2 9 8 13 30 12 149 -2 157 -3 140 -13 -15 -8
-18 -25 -18 -114 0 -90 2 -104 18 -108 9 -3 -10 -5 -43 -6 -45 0 -56 2 -42 10
14 8 17 26 17 115 l0 104 -30 -2 -30 -2 0 -113 c0 -62 -3 -113 -7 -112 -5 0
-30 27 -56 60 -27 32 -53 57 -58 54 -5 -4 -6 0 -4 7 3 8 -1 22 -9 33 -14 18
-15 13 -16 -62 0 -75 10 -104 23 -70 4 9 6 9 6 0 2 -24 -4 -25 -101 -27 -87
-1 -97 1 -102 18 -3 12 -10 16 -20 13 -10 -4 -13 -1 -9 9 6 17 39 19 49 2 4
-7 3 -8 -4 -4 -7 4 -12 3 -12 -3 0 -12 19 -25 26 -18 3 2 2 16 -2 31 -9 37
-60 37 -74 0 -13 -34 -13 -34 11 -34 11 0 18 -4 15 -8 -2 -4 -23 -6 -46 -4
-33 3 -38 6 -26 16 13 9 47 86 46 105 -1 10 -24 -32 -26 -47 -4 -21 -14 -28
-14 -10 0 14 -4 14 -25 5 -14 -7 -25 -19 -25 -28 0 -9 -11 -24 -25 -33 -36
-24 -92 -11 -132 30 -27 26 -33 40 -33 76 0 55 16 86 59 115 19 13 28 23 20
23 -26 0 -61 -32 -81 -74 -11 -22 -17 -31 -15 -19 3 12 -1 30 -9 40 -12 17
-13 16 -14 -9 0 -17 -10 -33 -27 -46 -26 -19 -26 -19 -5 -31 14 -8 23 -25 28
-56 6 -44 18 -58 27 -32 2 6 7 9 11 6 16 -15 -6 -35 -34 -31 -36 5 -52 23 -65
75 -16 63 -35 59 -35 -7 0 -43 4 -56 15 -56 9 0 12 6 9 17 -5 15 -4 16 5 3 5
-8 7 -18 3 -22 -9 -9 -110 -13 -119 -5 -3 4 1 7 10 7 15 0 17 14 17 111 0 65
-4 108 -9 104 -5 -3 -12 -1 -16 5 -9 14 140 13 167 -1 15 -8 19 -8 14 0 -10
16 -69 46 -85 42 -7 -1 -10 2 -7 8 4 6 -5 13 -18 17 l-26 6 23 19 c21 18 21
18 2 19 -43 0 -571 41 -591 45 -20 4 -21 9 -16 129 l4 125 -26 24 c-27 25 -79
41 -168 52 l-48 6 0 -91 c0 -70 3 -89 13 -84 9 6 9 4 1 -7 -16 -19 -16 -111
-1 -106 7 2 21 0 32 -5 19 -9 19 -9 1 6 -10 9 -23 13 -27 10 -5 -3 -9 2 -9 10
0 18 16 21 26 5 3 -6 25 -19 48 -30 30 -14 34 -18 13 -14 -16 3 -27 1 -27 -5
0 -6 -5 -8 -12 -4 -7 4 -8 3 -4 -4 4 -6 14 -8 22 -5 13 5 15 -5 13 -63 -2 -40
2 -78 9 -91 7 -12 12 -41 12 -65 0 -24 5 -49 10 -54 10 -10 14 -38 19 -111 0
-13 8 -23 16 -23 18 0 19 -12 3 -28 -9 -9 -8 -12 5 -12 9 0 17 -4 17 -10 0 -5
-4 -10 -9 -10 -5 0 -17 -3 -27 -7 -11 -4 -15 -3 -11 4 5 7 0 9 -12 6 -11 -3
-28 4 -40 16 -12 12 -21 17 -21 11 0 -47 279 -96 683 -121 262 -15 1046 -7
1247 14 252 27 422 59 456 88 8 7 13 28 13 53 l-2 41 -6 -40 c-5 -33 -12 -43
-41 -57 -39 -20 -90 -24 -90 -7 0 6 6 9 14 6 10 -4 12 0 9 14 -3 10 -9 16 -14
13 -5 -3 -9 -1 -9 5 0 5 9 12 19 16 15 4 21 18 26 53 3 26 12 61 20 77 7 17
17 54 20 83 4 28 11 52 15 52 8 0 7 63 -3 123 -4 25 -2 28 15 24 11 -3 17 -3
14 0 -3 4 10 17 29 30 38 26 53 30 36 10 -6 -8 -9 -16 -7 -18 3 -2 -2 -30 -9
-62 -10 -41 -10 -57 -2 -57 24 0 333 51 350 58 14 6 2 18 -62 57 -44 28 -104
64 -132 82 l-51 32 73 74 c41 40 90 86 109 100 l35 27 -108 0 c-127 0 -286
-16 -339 -35 -21 -7 -40 -10 -42 -6 -1 3 1 53 6 111 5 58 8 128 6 155 -2 28
-9 -24 -15 -114z m-1627 -606 c65 -27 87 -137 38 -194 -14 -18 -35 -36 -45
-42 -30 -16 -93 6 -124 43 -24 28 -27 39 -23 85 5 58 25 88 73 109 38 17 39
17 81 -1z m1282 3 c20 0 22 -3 16 -37 -9 -47 -11 -48 -19 -12 -7 32 -39 49
-70 37 -38 -14 -52 -144 -21 -191 24 -37 63 -31 93 14 l23 34 0 -38 c0 -26 -4
-36 -13 -32 -7 3 -21 -1 -32 -9 -33 -24 -115 8 -140 56 -44 86 29 204 115 184
14 -3 35 -6 48 -6z"/>
<path d="M620 425 c-6 -8 -14 -40 -17 -72 -7 -76 15 -133 51 -133 19 0 27 8
36 36 12 36 9 130 -6 167 -8 21 -47 22 -64 2z"/>
</g>
</svg>
