<?xml version="1.0" standalone="no"?>
<!DOCTYPE svg PUBLIC "-//W3C//DTD SVG 20010904//EN"
 "http://www.w3.org/TR/2001/REC-SVG-20010904/DTD/svg10.dtd">
<svg version="1.0" xmlns="http://www.w3.org/2000/svg"
 width="236.000000pt" height="203.000000pt" viewBox="0 0 236.000000 203.000000"
 preserveAspectRatio="xMidYMid meet">
<metadata>
Created by potrace 1.16, written by Peter Selinger 2001-2019
</metadata>
<g transform="translate(0.000000,203.000000) scale(0.100000,-0.100000)"
fill="#000000" stroke="none">
<path d="M901 1852 c-6 -11 -11 -33 -11 -47 0 -17 -27 -66 -75 -133 l-75 -107
0 -166 0 -166 -67 -5 c-38 -3 -85 -12 -105 -21 -34 -14 -38 -20 -37 -49 1 -18
3 -25 6 -15 3 13 10 16 21 12 62 -24 199 -29 276 -9 23 5 24 4 19 -43 -3 -26
-3 -46 0 -43 3 3 8 31 10 62 4 46 2 58 -11 63 -14 5 -15 7 -2 16 13 9 13 10
-1 6 -8 -3 -26 1 -39 8 -13 7 -29 11 -36 8 -7 -2 -15 0 -18 5 -3 6 0 12 7 14
22 9 158 -9 170 -22 10 -10 7 -11 -13 -5 -52 16 -54 15 -13 -4 43 -20 83 -70
83 -103 0 -21 -11 -23 -30 -5 -12 10 -12 9 -1 -5 34 -46 54 -3 25 53 -14 28
-14 30 3 27 12 -2 19 4 21 19 6 39 -39 57 -153 63 l-100 5 -3 78 -3 77 58 0
c32 0 95 -3 141 -7 l83 -6 -2 -334 c-1 -333 -1 -333 -23 -333 -24 0 -165 36
-173 44 -3 3 0 62 7 131 6 70 10 128 7 131 -2 3 -10 -55 -17 -128 -16 -170
-21 -190 -51 -205 -28 -15 -157 -17 -178 -4 -10 7 0 8 30 6 40 -4 41 -4 9 3
-20 5 -42 12 -49 17 -10 5 -12 4 -7 -3 4 -7 2 -12 -3 -12 -6 0 -11 21 -12 48
-2 119 -10 232 -18 287 -9 51 -9 42 -5 -55 10 -251 14 -279 42 -298 18 -12 46
-16 96 -16 82 1 128 19 136 52 6 28 0 28 114 2 90 -21 99 -21 180 -8 85 15 86
15 86 -6 0 -12 3 -31 6 -42 4 -15 0 -23 -14 -26 -25 -7 -372 -240 -396 -267
-24 -26 -15 -37 16 -20 12 7 46 17 73 21 46 6 45 7 -14 3 -35 -2 -59 0 -55 4
5 4 93 62 195 130 l187 122 88 -36 c91 -38 185 -100 204 -135 10 -18 8 -20
-31 -20 -23 0 -40 -3 -36 -6 3 -3 22 -6 41 -6 20 0 33 -4 30 -9 -3 -5 0 -8 8
-7 9 2 13 -9 12 -37 -1 -68 -15 -159 -23 -147 -4 7 -12 3 -20 -11 -13 -21 -13
-21 4 -7 15 13 18 13 13 1 -2 -8 -18 -19 -34 -23 -39 -12 -549 1 -599 15 -22
6 -43 10 -47 9 -5 -1 -8 3 -8 9 0 5 -5 7 -11 3 -8 -4 -6 -11 4 -21 10 -11 60
-17 193 -23 207 -11 449 -12 482 -4 34 9 49 49 57 146 6 77 5 92 -13 127 l-20
39 96 12 c135 17 138 19 152 83 10 50 14 55 42 61 17 3 41 6 54 6 30 0 74 20
74 34 0 7 -14 20 -30 30 -55 32 -64 56 -57 159 l5 92 50 50 c33 34 56 69 71
109 12 33 31 72 41 87 25 34 25 55 1 68 -10 6 -28 27 -40 46 -12 21 -36 42
-56 51 -19 8 -35 20 -35 28 0 7 -9 25 -20 38 -19 25 -19 26 0 43 11 10 17 22
14 26 -8 13 -42 -8 -49 -30 -3 -10 -14 -21 -25 -24 -11 -3 -29 -21 -41 -41
-11 -20 -27 -36 -34 -36 -7 0 -33 -18 -57 -40 -25 -22 -57 -44 -72 -50 -34
-12 -33 -30 4 -65 17 -17 38 -54 50 -91 14 -42 36 -80 66 -113 24 -27 39 -51
33 -53 -6 -2 2 -10 17 -17 23 -10 27 -10 17 0 -21 21 -15 29 20 29 l32 0 -3
-117 c-2 -76 -7 -120 -15 -126 -8 -5 -5 -7 8 -5 25 3 69 -27 60 -41 -3 -6 -1
-11 4 -11 6 0 11 5 11 11 0 5 5 7 11 3 21 -12 -10 -28 -68 -35 -32 -3 -62 -2
-67 2 -6 5 13 10 45 11 l54 2 -49 3 -48 4 6 32 c3 18 8 51 12 75 4 23 11 45
15 48 5 3 9 15 8 27 l0 22 -9 -22 c-6 -14 -24 -26 -50 -34 -22 -7 -38 -14 -36
-17 3 -2 19 0 35 6 17 6 31 8 31 4 0 -27 -34 -182 -39 -182 -4 0 -6 -12 -4
-28 3 -15 0 -39 -6 -53 -8 -23 -19 -28 -74 -38 -35 -6 -91 -11 -125 -11 -54 0
-68 4 -121 38 -33 22 -86 49 -119 61 -59 22 -60 23 -67 68 -3 25 -5 46 -3 48
2 2 23 -1 46 -7 35 -9 46 -8 60 4 9 9 31 23 47 31 17 9 23 16 16 17 -8 0 -32
-12 -52 -26 -33 -23 -41 -24 -77 -15 -41 11 -52 32 -52 95 l0 22 73 -18 c100
-26 267 -40 352 -30 64 7 57 8 -70 9 -198 2 -365 38 -365 79 0 12 5 14 18 9
83 -37 162 -49 327 -49 159 -1 173 1 218 22 26 13 47 28 47 33 0 6 -5 7 -10 4
-6 -4 -19 -1 -28 6 -14 11 -15 11 -4 -1 19 -21 15 -27 -25 -42 -26 -9 -90 -13
-198 -13 -137 1 -172 4 -243 24 -98 28 -97 40 7 67 50 12 98 15 204 12 91 -2
127 0 105 5 -54 15 -296 2 -350 -18 -27 -9 -48 -21 -48 -26 0 -5 -4 -9 -10 -9
-5 0 -10 7 -10 16 0 18 69 50 128 60 23 4 45 10 47 14 3 5 14 6 25 3 13 -4 27
1 36 13 14 17 15 17 10 2 -5 -16 1 -18 52 -16 57 2 57 2 10 5 l-48 4 7 269 6
270 -77 116 c-43 64 -75 122 -72 129 2 7 -1 21 -8 31 -12 15 -36 18 -204 22
-184 4 -190 4 -201 -16z m317 -2 l82 0 0 -29 c0 -20 24 -67 71 -140 l71 -110
-1 -237 c-1 -131 -4 -241 -7 -246 -3 -4 -58 -8 -123 -8 -161 0 -241 -29 -241
-87 0 -28 26 -41 51 -24 22 13 26 -1 5 -19 -21 -16 -50 -96 -43 -115 15 -36
88 9 87 54 -1 9 -9 0 -18 -19 -11 -23 -24 -35 -37 -35 -45 0 0 109 66 157 14
11 47 23 75 28 l49 9 -49 -3 c-29 -2 -60 -12 -78 -26 -34 -25 -48 -22 -19 4
30 27 90 45 151 46 30 0 71 4 90 10 30 8 32 7 18 -4 -10 -7 -15 -16 -11 -20 4
-3 -9 -3 -28 0 -19 4 -31 3 -26 -1 4 -5 -25 -17 -65 -27 -94 -24 -113 -42
-113 -112 0 -30 3 -52 7 -50 4 3 7 -4 7 -13 0 -10 3 -30 6 -44 7 -26 5 -27
-57 -38 -36 -6 -72 -11 -81 -11 -16 0 -17 29 -17 329 0 195 4 332 9 336 15 8
78 -51 98 -93 17 -36 20 -37 78 -40 78 -4 105 3 105 28 0 17 -7 20 -45 20 -54
0 -87 15 -150 70 -25 22 -55 40 -65 40 -34 0 -31 19 4 25 39 8 69 0 106 -25
41 -28 99 -43 151 -38 53 5 68 -4 49 -27 -14 -17 -104 -20 -143 -6 -13 5 -45
28 -71 50 -27 23 -57 41 -69 40 -20 -1 -21 -2 -2 -6 11 -3 41 -23 66 -44 57
-48 86 -59 153 -59 59 0 90 17 84 46 -3 17 -12 19 -78 19 -65 0 -82 4 -125 29
-53 32 -135 51 -135 32 0 -6 -5 -4 -10 4 -6 8 -7 28 -4 43 4 22 -7 55 -47 138
-29 60 -54 107 -56 105 -3 -2 16 -45 41 -95 43 -85 46 -95 45 -168 0 -43 -3
-72 -6 -65 -3 8 -28 12 -72 12 -38 0 -97 3 -132 7 l-64 8 130 12 130 12 -130
-3 c-75 -2 -113 0 -90 4 l40 7 -37 2 c-37 1 -38 2 -38 41 0 35 12 57 75 147
77 109 79 111 75 152 -1 18 2 22 14 18 9 -4 16 -1 16 5 0 8 28 9 98 5 53 -4
134 -7 180 -7z m619 -475 c25 -17 66 -102 57 -116 -3 -5 0 -9 6 -9 6 0 8 -5 4
-11 -5 -9 -40 -10 -123 -5 -138 7 -171 14 -171 32 0 31 35 83 69 103 44 25
126 28 158 6z m-27 -150 c52 0 111 3 132 7 l36 6 -14 -26 c-7 -15 -23 -51 -35
-79 -27 -66 -87 -123 -130 -123 -45 0 -96 27 -118 64 -11 17 -31 61 -44 99
l-25 67 52 -7 c28 -5 94 -8 146 -8z m-994 -30 c70 -29 29 -47 -110 -46 -87 0
-156 14 -156 31 0 8 33 21 85 34 33 8 144 -3 181 -19z"/>
</g>
</svg>
