<?xml version="1.0" standalone="no"?>
<!DOCTYPE svg PUBLIC "-//W3C//DTD SVG 20010904//EN"
 "http://www.w3.org/TR/2001/REC-SVG-20010904/DTD/svg10.dtd">
<svg version="1.0" xmlns="http://www.w3.org/2000/svg"
 width="266.000000pt" height="210.000000pt" viewBox="0 0 266.000000 210.000000"
 preserveAspectRatio="xMidYMid meet">
<metadata>
Created by potrace 1.16, written by Peter Selinger 2001-2019
</metadata>
<g transform="translate(0.000000,210.000000) scale(0.100000,-0.100000)"
fill="#000000" stroke="none">
<path d="M2452 1859 c-29 -50 -35 -55 -61 -51 -27 4 -32 -1 -68 -65 -174 -300
-256 -511 -309 -788 -9 -49 -18 -91 -19 -93 -1 -1 -31 -7 -66 -13 -117 -18
-133 -25 -154 -66 l-20 -38 -6 65 -6 65 -1 -68 c-2 -71 -2 -71 -58 -81 l-32
-5 5 42 c3 23 16 75 29 115 13 40 24 83 24 96 0 15 12 30 37 47 21 13 44 36
53 51 14 26 13 31 -9 72 l-23 45 22 36 c12 20 21 37 19 38 -2 2 -16 9 -31 17
-16 7 -26 15 -23 18 2 3 10 1 18 -4 7 -5 4 -1 -6 9 -26 23 -32 22 -57 -14 -12
-16 -24 -28 -27 -26 -6 6 56 108 77 128 10 8 20 24 24 35 23 75 -238 245 -338
220 -19 -5 -28 -19 -46 -72 -20 -65 -67 -165 -98 -211 l-14 -23 -28 23 c-15
13 -55 33 -89 46 -48 17 -64 29 -72 49 -6 15 -19 34 -31 43 -19 15 -19 17 -4
47 9 17 25 36 36 42 17 9 18 14 8 35 -14 32 -25 31 -101 -3 -74 -34 -162 -118
-145 -139 7 -9 15 -10 30 -2 29 16 74 -6 87 -42 6 -16 17 -37 26 -45 11 -11
15 -36 15 -88 0 -48 5 -79 15 -92 8 -10 15 -25 15 -33 0 -20 -27 5 -36 32 -14
46 -33 57 -89 51 -49 -6 -53 -5 -79 26 -23 28 -30 31 -49 22 -12 -5 -30 -13
-40 -16 -13 -4 -17 -12 -12 -26 8 -26 1 -25 -35 2 -17 12 -30 31 -30 42 0 12
-7 29 -15 40 -19 25 -86 27 -112 4 -23 -21 -56 -14 -89 18 -12 13 -28 24 -34
24 -5 0 -10 7 -10 15 0 9 -12 18 -30 21 -16 4 -35 13 -41 20 -6 8 -27 14 -46
14 -43 0 -87 -43 -80 -78 3 -18 -1 -26 -21 -33 -13 -5 -22 -12 -19 -15 3 -3 2
-17 -3 -30 -6 -15 -6 -24 0 -24 6 0 10 6 10 14 0 7 10 16 23 20 35 9 37 8 25
-19 -17 -37 3 -75 40 -75 15 0 33 5 40 12 12 12 17 60 6 70 -12 12 -60 -10
-71 -33 -12 -22 -13 -22 -13 -4 0 28 19 45 48 45 13 0 21 4 18 9 -3 4 7 8 22
7 18 -1 27 4 27 14 0 34 52 41 79 11 17 -18 17 -21 1 -45 -16 -25 -16 -27 1
-54 l19 -27 3 32 c4 37 27 55 60 46 28 -7 28 -11 -3 -35 -14 -11 -25 -30 -25
-44 0 -20 -5 -24 -28 -24 -16 0 -38 9 -50 20 -23 21 -30 36 -12 25 6 -3 10 -1
10 5 0 6 -7 10 -16 8 -8 -2 -14 -7 -14 -12 2 -13 -69 -46 -99 -46 -14 0 -43
-3 -64 -6 l-37 -7 0 -391 0 -392 221 -1 c188 -1 221 1 226 14 3 8 16 25 28 37
15 15 25 45 35 101 7 44 17 85 21 91 5 6 2 20 -7 32 -12 18 -12 21 -1 16 11
-4 16 10 23 58 4 35 7 72 6 83 -2 20 -2 20 13 1 18 -23 20 -40 4 -30 -7 4 -4
-6 6 -23 16 -27 16 -32 1 -61 -20 -39 -20 -40 6 -44 12 -2 23 -10 25 -18 4
-12 3 -13 -5 -1 -5 7 -15 10 -22 6 -6 -4 -17 1 -25 11 -8 11 -15 14 -15 7 0
-6 10 -19 22 -27 12 -9 19 -19 15 -22 -4 -4 -13 -1 -22 6 -8 7 -15 8 -15 2 0
-30 78 -20 89 12 5 11 11 40 14 64 4 36 2 44 -16 54 -12 7 -25 12 -29 13 -3 0
-10 4 -15 9 -5 5 -3 6 5 2 17 -10 15 -2 -8 36 -31 51 -26 82 22 130 l42 42 33
-39 c33 -38 38 -60 8 -35 -21 17 -19 -2 4 -31 20 -27 24 -41 51 -194 57 -328
57 -328 91 -355 17 -14 12 -15 -57 -17 -41 -1 -82 -7 -92 -13 -13 -8 -5 -9 33
-5 120 13 202 9 183 -10 -2 -3 -35 -12 -71 -21 -37 -10 -65 -19 -63 -22 5 -4
153 13 208 24 16 3 28 1 28 -4 0 -5 -12 -13 -28 -17 -53 -14 0 -17 99 -5 63 8
97 16 92 23 -4 6 -1 7 6 2 7 -4 52 -4 99 0 57 5 80 10 67 15 -18 7 -17 8 9 15
15 4 65 13 110 20 l81 13 -62 1 -62 1 15 35 c7 19 14 42 14 52 1 42 13 44 96
12 167 -65 344 -119 387 -119 42 0 49 4 105 63 33 34 94 103 136 152 64 76 76
96 76 126 0 26 -6 41 -21 50 -20 14 -20 14 -1 59 11 25 23 60 26 76 4 17 20
41 36 53 17 12 30 27 30 33 0 6 -11 1 -25 -12 -24 -22 -25 -23 -25 -3 0 11 11
30 25 43 14 13 25 31 25 39 -1 12 -6 10 -21 -8 -11 -13 -21 -22 -23 -20 -1 2
6 54 18 114 17 94 20 152 20 397 1 216 -2 288 -11 288 -9 0 -8 12 3 45 26 74
12 88 -24 24z m-845 -273 c73 -35 153 -104 153 -131 0 -22 -48 -19 -117 7 -60
22 -127 60 -138 78 -3 5 -11 10 -17 10 -6 0 -1 -12 13 -26 33 -35 159 -95 212
-101 l45 -5 -47 -80 c-25 -44 -47 -73 -49 -66 -4 19 -99 18 -111 -1 -5 -8 -16
-11 -30 -6 -16 5 -21 2 -21 -10 0 -9 -9 -19 -20 -22 -11 -3 -20 -11 -20 -19 0
-14 -18 -29 -26 -21 -2 2 27 52 67 111 l71 106 -42 48 c-50 56 -85 123 -77
146 11 27 75 19 154 -18z m-134 -80 c17 -22 40 -49 50 -59 17 -17 16 -21 -24
-95 -58 -108 -102 -182 -109 -182 -3 0 -20 28 -37 63 -18 34 -38 70 -46 81
-12 16 -9 25 27 81 23 34 52 92 66 129 21 56 26 63 32 45 5 -12 23 -40 41 -63z
m-373 -75 c0 -5 9 -12 19 -16 14 -4 18 -11 14 -23 -6 -14 -4 -15 9 -4 23 18
50 5 43 -22 -6 -20 -6 -20 9 -2 15 19 16 19 37 0 48 -42 139 -185 139 -218 0
-8 -9 -20 -21 -26 -21 -12 -28 -7 -196 123 -15 12 -30 16 -41 11 -9 -4 -21 -6
-26 -5 -4 1 -15 -4 -23 -11 -12 -9 -16 -9 -23 3 -11 17 -4 63 10 67 5 2 10 8
10 13 0 6 -5 7 -12 3 -7 -5 -9 -2 -5 9 3 9 1 18 -6 21 -9 3 -8 8 3 15 13 9 13
11 -2 11 -27 0 -22 12 15 37 36 24 47 28 47 14z m1325 -12 c-4 -12 -8 -27 -10
-33 -1 -6 -5 -18 -8 -26 -13 -33 -38 -130 -52 -205 -8 -44 -21 -110 -29 -146
-7 -36 -12 -79 -12 -95 l1 -30 -45 7 c-25 4 -71 8 -102 8 -81 1 -73 21 10 22
64 2 65 2 20 8 -58 8 -73 21 -27 22 19 1 45 5 59 9 21 7 19 8 -17 9 -59 1 -54
21 5 21 34 0 43 3 32 10 -8 5 -25 10 -38 10 -13 0 -20 4 -17 10 3 6 22 10 41
10 41 0 37 20 -4 21 -26 0 -25 1 8 14 19 7 27 14 18 14 -29 1 -20 20 15 30 25
7 27 9 10 10 -34 1 -28 18 10 27 31 7 31 8 7 14 l-25 7 24 10 c21 8 22 11 7
16 -22 9 -11 27 17 27 22 1 22 1 -2 14 -20 11 -21 14 -7 19 10 4 14 11 11 17
-3 6 4 14 17 19 13 6 17 10 11 10 -19 1 -16 19 5 25 9 3 5 4 -10 2 -15 -2 -25
1 -22 5 3 5 12 9 20 9 8 0 14 3 14 8 0 4 14 22 30 40 17 18 30 37 30 43 0 5 3
9 6 9 3 0 2 -10 -1 -21z m-767 -180 c10 -15 6 -18 -38 -24 -26 -4 -55 -14 -63
-23 -24 -27 -84 -142 -108 -207 -12 -33 -26 -66 -32 -72 -6 -9 -6 -13 3 -13 6
0 17 15 23 32 16 45 102 219 119 241 9 12 33 20 71 24 67 7 80 -11 15 -20 -31
-4 -49 -14 -66 -34 -28 -35 -115 -213 -108 -220 3 -4 18 20 33 53 50 109 94
174 122 180 14 3 32 7 39 10 19 6 15 -8 -23 -64 -70 -103 -112 -182 -97 -182
4 0 20 25 36 55 16 31 33 52 39 48 6 -3 7 -1 3 6 -4 7 14 38 44 77 l51 65 -21
28 c-22 33 -25 47 -9 56 19 12 48 -25 43 -54 -3 -16 3 -37 16 -56 11 -17 20
-24 20 -15 1 13 2 13 9 0 17 -28 0 -70 -38 -96 -20 -13 -44 -37 -54 -53 -9
-16 -33 -43 -52 -59 -31 -28 -38 -30 -65 -21 -17 6 -50 8 -78 4 -26 -4 -64 -8
-84 -8 -21 -1 -38 -6 -38 -11 0 -5 -25 -6 -55 -4 -33 3 -56 0 -58 -6 -2 -7
-38 -6 -113 3 -130 16 -152 23 -164 55 -9 25 -30 44 -30 27 0 -5 5 -13 10 -16
19 -12 10 -21 -22 -20 -26 0 -37 7 -59 40 -15 22 -45 55 -68 73 -46 37 -54 73
-25 117 8 13 14 30 12 37 -2 8 11 28 27 44 29 30 31 30 49 12 11 -10 31 -18
45 -17 l26 1 -25 8 c-20 7 -16 8 20 7 41 -2 46 -5 67 -42 21 -38 21 -44 8 -80
-23 -65 -34 -52 140 -174 32 -22 33 -25 17 -37 -9 -8 -12 -14 -5 -14 6 0 15 5
18 11 5 7 15 5 32 -6 14 -9 28 -14 31 -10 4 4 -1 11 -11 16 -9 6 -14 15 -11
21 5 7 2 8 -6 3 -8 -5 -17 -2 -24 6 -6 8 -43 36 -83 62 -40 26 -75 52 -78 57
-6 10 59 107 84 126 12 9 25 3 65 -27 92 -70 106 -83 106 -97 0 -12 -3 -12
-15 -2 -16 13 -35 6 -35 -15 0 -19 27 -26 40 -9 7 8 19 14 27 14 21 0 73 -39
72 -53 0 -9 -2 -8 -6 1 -2 6 -11 12 -19 12 -17 0 -19 -37 -1 -43 9 -3 9 -7 -2
-20 -17 -21 -51 -22 -51 -2 0 9 -9 15 -21 15 -14 0 -19 -5 -17 -17 2 -10 11
-17 21 -17 9 1 17 -2 17 -7 0 -5 8 -5 17 -2 12 5 15 2 10 -10 -3 -9 -2 -17 3
-17 6 0 10 4 10 9 0 6 14 30 31 55 20 31 31 61 34 93 2 26 9 49 14 51 6 2 11
12 11 23 0 10 5 19 10 19 6 0 10 9 10 20 0 11 7 20 15 20 8 0 15 9 15 20 0 11
7 20 15 20 8 0 15 7 15 16 0 11 6 14 20 9 13 -4 22 -1 26 10 4 10 13 13 24 10
10 -3 21 -1 25 4 7 13 37 -4 53 -30z m302 -449 c25 -6 69 -20 98 -32 57 -22
58 -25 32 -93 -12 -31 -19 -31 -150 -1 -147 34 -163 41 -155 69 16 53 33 67
83 67 26 0 67 -5 92 -10z m420 -65 c17 -9 30 -19 30 -23 0 -21 -184 -162 -243
-187 -20 -8 -54 -15 -75 -15 -49 0 -171 30 -284 71 l-86 31 15 45 c12 34 19
43 32 38 64 -25 141 -47 227 -64 91 -19 106 -19 148 -7 53 16 131 63 166 101
28 29 32 30 70 10z m30 -53 c0 -10 -124 -158 -155 -185 -42 -37 -94 -57 -147
-57 -66 0 -122 15 -287 75 -112 41 -128 50 -123 67 2 10 10 17 16 15 69 -27
249 -79 319 -92 l87 -18 63 31 c34 17 98 63 142 101 88 77 85 74 85 63z m-724
-68 c4 -14 3 -29 -2 -34 -5 -5 -55 -24 -111 -42 l-101 -33 -6 27 c-3 14 -16
36 -28 48 l-23 21 25 -5 c14 -4 63 4 110 18 115 32 128 32 136 0z"/>
</g>
</svg>
