<?xml version="1.0" standalone="no"?>
<!DOCTYPE svg PUBLIC "-//W3C//DTD SVG 20010904//EN"
 "http://www.w3.org/TR/2001/REC-SVG-20010904/DTD/svg10.dtd">
<svg version="1.0" xmlns="http://www.w3.org/2000/svg"
 width="238.000000pt" height="210.000000pt" viewBox="0 0 238.000000 210.000000"
 preserveAspectRatio="xMidYMid meet">
<metadata>
Created by potrace 1.16, written by Peter Selinger 2001-2019
</metadata>
<g transform="translate(0.000000,210.000000) scale(0.100000,-0.100000)"
fill="#000000" stroke="none">
<path d="M2248 2005 c-12 -14 -29 -25 -39 -25 -19 0 -44 -21 -52 -42 -3 -9
-13 -4 -30 15 -39 41 -87 35 -112 -14 -23 -44 -18 -62 30 -111 30 -31 46 -56
47 -75 0 -15 1 -35 2 -43 1 -8 4 -14 9 -12 4 1 13 2 21 2 11 0 13 9 9 34 -3
19 -2 61 2 92 10 79 25 51 25 -47 0 -57 4 -78 14 -82 20 -8 26 2 26 44 0 30 8
45 45 82 49 50 58 86 30 123 -19 25 -19 43 2 66 10 11 12 18 4 18 -6 0 -21
-11 -33 -25z"/>
<path d="M97 2003 c-4 -3 -7 -89 -7 -190 0 -176 1 -183 20 -183 14 0 20 7 20
23 0 32 11 45 45 50 28 4 28 4 -6 6 -36 1 -37 2 -37 41 -1 24 4 40 11 40 9 0
9 2 1 8 -7 4 -11 44 -12 100 l-1 92 35 0 c19 0 34 5 34 10 0 11 -93 14 -103 3z"/>
<path d="M344 2001 c-71 -30 -85 -135 -24 -178 9 -7 25 -34 35 -60 10 -26 37
-79 59 -117 l41 -68 3 36 c2 19 -1 51 -7 71 -5 21 -6 37 0 41 12 7 12 74 -1
74 -5 0 -10 4 -10 9 0 4 35 11 77 15 44 3 80 11 85 19 13 20 10 127 -4 132 -7
3 -51 9 -98 15 -47 5 -96 12 -110 14 -14 3 -35 1 -46 -3z"/>
<path d="M641 1997 c-20 -10 -23 -16 -18 -55 2 -23 1 -59 -3 -78 -7 -31 -5
-36 20 -49 45 -23 68 -19 91 18 15 24 19 44 16 79 -7 85 -44 115 -106 85z"/>
<path d="M885 2000 c-7 -11 -8 -11 22 -14 13 -2 26 -6 29 -9 4 -4 -7 -5 -24
-2 -17 2 -35 -2 -39 -8 -5 -7 -9 -61 -8 -122 l0 -110 75 0 75 0 3 109 c2 84
-1 112 -12 125 -8 9 -14 21 -13 26 3 14 -100 19 -108 5z"/>
<path d="M1110 1985 c0 -25 19 -37 21 -12 0 6 5 1 10 -13 13 -32 5 -75 -21
-107 -41 -52 -20 -57 45 -10 30 22 43 38 41 50 -3 13 0 16 13 12 12 -4 22 4
34 30 9 19 23 35 30 35 18 0 37 -21 36 -39 0 -10 -4 -7 -9 7 -17 41 -51 16
-55 -40 0 -3 -3 -10 -7 -14 -5 -4 -8 -18 -8 -31 0 -22 3 -24 47 -21 52 3 67
23 39 50 -13 13 -12 17 5 31 10 9 30 19 44 23 33 8 32 17 -6 48 -28 24 -38 26
-129 26 -69 0 -100 -4 -103 -12 -4 -10 -6 -10 -6 0 -2 23 -21 12 -21 -13z"/>
<path d="M1520 1940 l0 -70 81 0 80 0 -3 68 -3 67 -62 3 -63 3 0 -66 c0 -40
-4 -65 -11 -65 -7 0 -10 23 -7 65 1 36 0 65 -4 65 -5 0 -8 -31 -8 -70z"/>
<path d="M1522 1598 l3 -253 25 1 c14 1 49 2 78 3 l52 1 0 250 0 250 -80 0
-80 0 2 -252z"/>
<path d="M1213 1812 c-22 -22 -24 -48 -21 -282 l3 -225 90 0 90 0 3 239 c3
280 5 272 -91 278 -41 2 -65 -1 -74 -10z"/>
<path d="M906 1623 c-15 -37 -18 -132 -6 -188 19 -92 41 -109 66 -50 17 40 19
206 4 236 -13 23 -55 25 -64 2z"/>
<path d="M1850 1567 c0 -35 -13 -59 -60 -106 -38 -38 -40 -82 -5 -116 31 -32
60 -32 90 1 l25 27 21 -27 c11 -14 27 -26 36 -26 9 0 27 -12 40 -26 30 -32 41
-25 17 10 -15 24 -15 28 -2 44 37 43 30 78 -26 134 -30 30 -36 43 -36 77 0 34
-3 41 -20 41 -18 0 -20 -7 -20 -84 0 -47 -4 -87 -9 -90 -11 -7 -21 80 -14 132
5 38 4 42 -16 42 -17 0 -21 -6 -21 -33z"/>
<path d="M588 1520 c-53 -44 -63 -97 -44 -230 9 -57 16 -107 16 -112 0 -4 47
-8 105 -8 58 0 105 4 105 8 0 5 7 53 15 108 20 132 9 191 -43 234 -38 31 -102
42 -102 18 0 -10 -2 -10 -8 -1 -6 9 -18 5 -44 -17z"/>
<path d="M239 1478 c-1 -13 -2 -35 -3 -50 -1 -17 3 -28 11 -28 7 0 17 -9 23
-20 12 -22 11 -118 -1 -98 -4 6 -5 24 -2 39 3 15 0 36 -6 48 -23 43 -32 22
-31 -71 1 -51 1 -98 1 -105 -1 -6 -19 -22 -41 -34 -66 -37 -129 -169 -81 -169
17 0 26 14 45 73 8 25 68 50 78 32 4 -7 22 -12 40 -11 l33 2 2 174 c3 222 0
240 -38 240 -23 0 -29 -5 -30 -22z"/>
<path d="M906 1205 c4 -8 1 -15 -5 -15 -12 0 -15 -62 -3 -74 4 -4 7 -12 7 -18
0 -7 44 -11 120 -12 l119 -1 9 32 c5 17 6 48 3 67 l-7 36 -124 0 c-106 0 -124
-2 -119 -15z"/>
<path d="M2016 1191 c-34 -7 -55 -23 -56 -43 0 -19 36 -37 86 -44 58 -7 233
11 247 25 20 20 1 46 -38 52 -75 13 -200 18 -239 10z"/>
<path d="M1263 1183 c-16 -3 -23 -11 -23 -28 0 -30 22 -35 135 -34 111 2 149
9 153 31 2 12 -8 20 -35 27 -37 11 -184 13 -230 4z"/>
<path d="M1685 1178 c-8 -25 -44 -172 -42 -174 1 -1 22 -4 46 -5 33 -3 45 0
46 11 2 8 8 34 14 58 10 37 10 47 -4 68 -18 27 -14 31 9 8 15 -14 16 -14 16 1
0 9 -15 22 -35 31 -42 17 -45 17 -50 2z"/>
<path d="M1775 1107 c-9 -29 -18 -69 -22 -91 l-6 -38 49 6 c27 3 69 8 94 11
32 5 94 -4 215 -29 189 -40 185 -40 185 -27 0 10 -11 14 -229 81 -111 35 -140
48 -175 80 -23 22 -54 44 -69 49 -26 10 -27 9 -42 -42z"/>
<path d="M217 1064 c-16 -17 -6 -67 17 -85 54 -43 54 -184 -1 -224 -17 -13 -9
-58 13 -76 8 -6 14 -20 14 -30 0 -11 5 -19 10 -19 6 0 10 7 10 15 0 9 10 29
23 46 21 29 22 40 22 202 l0 172 -50 3 c-28 2 -54 0 -58 -4z"/>
<path d="M540 1013 c-14 -2 -44 -11 -67 -19 l-43 -16 1 -51 c1 -63 10 -99 27
-105 8 -2 13 13 14 50 l1 53 4 -45 c5 -50 23 -80 24 -39 1 31 8 71 14 78 3 2
5 -17 5 -42 0 -49 19 -67 21 -19 0 15 4 36 9 47 6 15 9 8 9 -27 1 -27 6 -48
11 -48 6 0 10 20 10 45 0 25 5 45 10 45 6 0 10 -20 10 -45 0 -25 5 -45 10 -45
6 0 10 21 10 47 0 25 2 44 5 42 5 -6 13 -45 14 -72 2 -37 21 -4 21 35 0 51 10
45 13 -8 3 -53 21 -49 28 6 l6 45 1 -48 c2 -63 23 -59 36 6 9 46 10 47 45 47
20 0 72 -6 116 -14 69 -12 135 -12 135 0 0 2 -7 22 -16 45 -16 39 -18 40 -51
34 -59 -11 -194 -7 -298 9 -55 9 -102 15 -105 15 -3 -1 -16 -4 -30 -6z"/>
<path d="M1140 986 c-6 -6 -10 -45 -10 -87 0 -61 3 -78 16 -83 20 -8 248 -8
268 0 13 5 16 22 16 84 0 52 -4 81 -12 87 -18 11 -267 10 -278 -1z"/>
<path d="M1710 865 c0 -26 38 -93 62 -109 35 -25 138 -21 172 5 30 24 56 69
56 99 0 18 -6 20 -77 20 -66 0 -80 -3 -101 -22 l-24 -23 -18 23 c-21 26 -70
31 -70 7z"/>
<path d="M815 813 c-21 -21 -18 -154 4 -161 8 -3 11 0 7 7 -5 8 10 11 51 11
41 0 54 -3 43 -10 -13 -8 -12 -10 3 -10 15 0 17 11 17 84 0 93 -2 96 -70 96
-23 0 -45 -7 -55 -17z m113 -42 c6 -78 -2 -91 -53 -91 -25 0 -45 5 -45 11 0 5
-4 7 -10 4 -15 -9 -13 98 2 113 8 8 32 12 58 10 l45 -3 3 -44z"/>
<path d="M2072 733 c-7 -3 -19 -18 -27 -33 -12 -24 -15 -83 -15 -325 l0 -296
133 3 132 3 0 303 0 304 -28 24 c-25 21 -38 24 -105 23 -42 0 -83 -3 -90 -6z
m38 -11 c0 -4 -4 -12 -10 -18 -6 -6 -11 -128 -12 -304 -2 -224 -6 -294 -15
-298 -10 -3 -13 60 -13 290 0 249 2 297 16 316 15 22 34 30 34 14z"/>
<path d="M1415 699 c-21 -13 -48 -18 -93 -18 -71 1 -97 -13 -107 -62 -7 -32
-36 -56 -75 -62 -18 -3 -25 -10 -25 -27 0 -31 25 -39 26 -8 1 17 2 19 6 5 9
-35 90 9 106 59 17 50 26 57 79 50 48 -7 92 5 131 36 18 13 18 14 0 30 -16 14
-21 14 -48 -3z"/>
<path d="M796 618 c-3 -13 -6 -139 -6 -280 l0 -258 85 0 85 0 0 249 c0 137 -3
263 -6 280 l-6 31 -73 0 c-67 0 -73 -2 -79 -22z"/>
<path d="M1664 568 c3 -13 10 -88 16 -168 6 -80 13 -162 16 -182 l6 -38 93 0
c52 0 96 3 98 8 3 4 10 75 16 157 6 83 14 171 17 198 l6 47 -136 0 c-136 0
-136 0 -132 -22z"/>
<path d="M470 520 c0 -5 -11 -10 -24 -10 -44 0 -47 -16 -45 -219 1 -141 5
-193 14 -201 17 -14 207 -9 212 6 2 7 -33 10 -109 9 -87 -1 -103 1 -68 7 25 5
74 7 110 6 l65 -3 0 195 0 195 -25 3 c-14 2 -29 8 -34 13 -27 25 -36 8 -36
-63 0 -40 -4 -99 -10 -131 -10 -65 -53 -168 -81 -193 -11 -10 -1 16 24 65 41
80 41 83 45 206 4 122 4 125 -17 125 -11 0 -21 -4 -21 -10z"/>
<path d="M101 431 c-12 -8 -13 -20 -2 -80 l13 -71 68 0 68 0 13 71 c15 86 12
89 -81 89 -36 0 -71 -4 -79 -9z"/>
<path d="M1225 390 c-4 -16 -11 -30 -16 -30 -14 0 -11 38 4 43 8 4 7 6 -3 6
-21 1 -40 -19 -40 -41 0 -17 12 -18 156 -18 l155 0 -3 27 c-4 34 -26 40 -155
42 l-91 1 -7 -30z"/>
<path d="M1152 305 c-27 -59 -4 -172 39 -196 11 -5 75 -8 146 -7 l127 3 23 34
c31 46 39 97 22 146 l-14 40 -166 3 -166 2 -11 -25z"/>
</g>
</svg>
