<?xml version="1.0" standalone="no"?>
<!DOCTYPE svg PUBLIC "-//W3C//DTD SVG 20010904//EN"
 "http://www.w3.org/TR/2001/REC-SVG-20010904/DTD/svg10.dtd">
<svg version="1.0" xmlns="http://www.w3.org/2000/svg"
 width="218.000000pt" height="146.000000pt" viewBox="0 0 218.000000 146.000000"
 preserveAspectRatio="xMidYMid meet">
<metadata>
Created by potrace 1.16, written by Peter Selinger 2001-2019
</metadata>
<g transform="translate(0.000000,146.000000) scale(0.100000,-0.100000)"
fill="#000000" stroke="none">
<path d="M631 1438 c-5 -13 -15 -56 -22 -95 -8 -46 -18 -73 -26 -73 -7 0 -13
-10 -13 -21 0 -13 -21 -41 -54 -71 -95 -86 -88 -50 -143 -810 -8 -118 6 -168
64 -216 73 -61 120 -75 276 -80 87 -3 154 0 184 7 26 7 49 8 52 3 3 -5 20 -14
36 -20 17 -6 57 -22 90 -36 48 -21 77 -26 146 -26 64 0 90 4 99 15 9 10 24 13
55 8 53 -7 74 5 100 54 14 26 28 39 45 41 53 6 69 13 75 33 8 23 82 109 95
109 4 0 11 -39 14 -88 12 -152 16 -172 37 -172 16 0 19 8 19 58 0 33 3 107 6
165 l7 106 43 30 c23 17 80 66 125 109 82 77 82 77 75 42 -3 -19 -11 -118 -17
-220 -10 -192 -9 -189 -65 -257 l-27 -33 35 0 c26 0 42 8 67 34 l33 34 -7 78
c-6 75 9 391 21 439 5 21 2 22 -68 28 -59 4 -237 44 -375 83 -29 8 -42 64 -58
253 -12 152 -13 155 -41 178 -16 12 -43 34 -61 48 -18 15 -38 45 -47 72 -18
54 -21 140 -5 145 17 6 1 68 -17 68 -8 0 -14 -9 -14 -20 0 -18 -6 -20 -67 -19
l-68 1 40 19 40 18 -56 1 c-56 0 -57 -1 -63 -32 -4 -23 -2 -34 8 -40 28 -16 2
-99 -59 -193 -63 -95 -69 -123 -67 -325 1 -155 -1 -172 -13 -150 -9 16 -14 56
-15 108 0 107 -17 217 -41 263 -23 46 -79 95 -118 104 -19 4 -32 14 -36 28 -4
12 -13 36 -20 52 -7 17 -16 60 -20 96 -7 64 -18 99 -29 88 -3 -3 1 -50 9 -104
8 -54 13 -100 10 -103 -9 -9 -23 68 -24 136 -1 13 -7 22 -17 22 -13 0 -15 -8
-10 -37 15 -112 17 -133 7 -133 -5 0 -11 26 -13 57 -4 81 -28 85 -28 4 0 -34
-4 -61 -9 -61 -5 0 -7 17 -5 38 2 20 1 49 -2 65 -10 48 -24 29 -24 -33 0 -52
-3 -60 -18 -60 -18 0 -18 4 -7 68 28 152 28 142 5 142 -12 0 -24 -9 -29 -22z
m635 -243 c40 -30 61 -31 90 -4 l22 21 63 -61 c59 -58 63 -65 69 -119 10 -86
12 -302 3 -302 -10 0 -122 37 -184 60 -38 14 -49 15 -60 6 -8 -7 -45 -30 -83
-50 l-68 -37 4 183 c6 196 12 225 64 293 14 19 31 35 37 35 5 0 25 -11 43 -25z
m-396 -130 c0 -138 54 -295 111 -326 11 -6 18 -13 16 -16 -3 -2 8 -17 25 -32
l31 -28 -48 -26 c-57 -32 -55 -32 -55 -8 0 11 -5 23 -10 26 -6 4 -8 16 -5 28
5 16 4 18 -3 8 -7 -10 -11 -10 -17 -1 -11 18 15 30 37 17 20 -13 25 -32 6 -21
-10 6 -10 4 0 -7 14 -16 16 -33 2 -24 -6 4 -7 -1 -3 -11 4 -11 8 -13 11 -6 2
7 8 10 13 7 5 -4 6 2 2 12 -6 15 -4 16 9 5 12 -10 18 -9 28 3 11 13 11 16 -1
13 -8 -2 -13 3 -11 11 3 12 1 12 -13 1 -14 -12 -15 -10 -11 13 3 15 0 27 -6
27 -5 0 -7 -8 -4 -17 5 -15 3 -14 -9 2 -9 11 -20 20 -25 20 -4 0 -12 3 -16 8
-4 4 -2 7 4 7 7 0 12 5 12 11 0 5 -5 7 -12 3 -8 -5 -9 -2 -5 10 5 11 3 15 -5
10 -8 -5 -9 -1 -5 12 7 18 6 18 -6 2 -8 -10 -18 -14 -22 -10 -5 4 -5 1 -1 -6
4 -7 12 -10 17 -7 5 4 9 2 9 -4 0 -5 -5 -13 -10 -16 -6 -4 -8 -11 -4 -16 3 -5
9 -7 14 -4 5 3 11 1 14 -4 3 -5 -1 -11 -9 -14 -22 -9 -89 74 -108 134 -9 28
-17 76 -17 107 0 51 1 54 14 36 8 -10 18 -16 22 -11 4 4 2 7 -4 7 -7 0 -12 16
-13 38 -1 32 -2 34 -8 12 -7 -23 -8 -23 -15 13 -8 41 5 38 -155 40 -51 1 -69
-17 -102 -103 -19 -47 -23 -80 -26 -220 -2 -91 -11 -210 -20 -264 -8 -54 -13
-117 -10 -138 6 -42 31 -78 55 -78 9 0 12 -6 7 -17 -4 -13 -3 -15 5 -7 8 8 27
5 68 -9 47 -16 77 -18 167 -15 61 2 120 9 131 16 20 11 22 8 28 -35 12 -93 10
-100 -34 -107 -46 -7 -276 -9 -287 -3 -5 3 -25 8 -46 11 -52 8 -93 31 -114 63
-21 31 -30 173 -11 173 5 0 8 -7 4 -15 -3 -8 -1 -15 4 -15 16 0 11 30 -5 36
-17 7 -22 84 -5 84 6 0 10 5 10 11 0 5 -5 7 -11 3 -23 -14 18 553 42 583 11
13 11 15 1 9 -23 -14 18 56 49 85 28 26 29 26 81 12 47 -12 213 -15 202 -4 -3
3 6 10 18 17 33 18 38 4 38 -101z m-110 -39 c0 -19 -12 -28 -58 -49 -65 -30
-142 -45 -142 -29 0 6 9 31 19 56 l20 45 73 3 c87 4 88 3 88 -26z m24 -199 c9
-24 26 -54 38 -67 l22 -23 -23 -18 c-23 -18 -23 -18 -71 22 -27 23 -53 38 -59
35 -5 -3 -13 -20 -16 -37 -8 -34 -1 -33 -92 -12 -15 4 -23 -1 -26 -14 -3 -10
-5 5 -6 32 l-1 51 59 12 c32 7 78 23 102 36 24 14 47 25 50 25 4 1 14 -18 23
-42z m-10 -136 c14 -15 23 -18 36 -11 14 7 19 5 23 -10 3 -11 17 -22 33 -25
60 -13 59 -10 62 -178 3 -155 3 -156 -21 -171 -39 -26 -124 -37 -204 -27 -93
12 -143 36 -168 83 -19 36 -19 39 -2 163 16 117 33 175 55 189 5 3 21 -2 36
-10 46 -23 63 -18 70 21 l7 36 27 -20 c15 -10 35 -28 46 -40z m664 9 c85 -22
157 -40 160 -40 4 0 -38 -18 -93 -39 -55 -21 -145 -59 -199 -84 l-99 -45 -110
39 c-61 21 -113 39 -116 39 -16 1 282 170 299 170 3 0 74 -18 158 -40z m448
-102 c57 -12 101 -25 98 -29 -8 -13 -151 -126 -206 -163 l-53 -35 -70 14 c-39
8 -122 26 -185 40 -63 14 -118 25 -122 25 -60 0 210 112 382 159 49 13 42 13
156 -11z m-817 -97 l83 -34 -69 -39 c-37 -21 -78 -46 -90 -55 l-23 -15 0 92
c0 50 4 90 8 88 4 -1 45 -18 91 -37z m353 -107 c73 -20 164 -44 203 -53 84
-20 92 -37 36 -74 -22 -15 -53 -46 -70 -71 -26 -38 -37 -45 -68 -48 -31 -2
-42 -10 -66 -45 -27 -41 -30 -43 -80 -43 -41 0 -56 -5 -79 -27 l-27 -26 -114
43 c-157 60 -148 51 -163 161 l-6 46 53 38 c45 33 230 135 244 135 2 0 63 -16
137 -36z"/>
<path d="M1368 1095 c-2 -3 -45 -6 -95 -7 l-91 -2 -6 -44 c-9 -64 -7 -120 3
-126 17 -11 246 158 236 175 -6 9 -38 12 -47 4z"/>
<path d="M1416 931 c-10 -11 -42 -34 -72 -52 -30 -18 -54 -36 -54 -39 0 -8
140 -70 157 -70 14 0 19 44 15 123 -4 61 -16 71 -46 38z"/>
<path d="M1009 1413 c0 -27 -2 -57 -4 -67 -2 -11 -5 -44 -6 -74 -2 -47 1 -57
20 -73 13 -11 26 -17 31 -14 4 2 10 40 13 83 3 44 15 104 27 133 11 30 20 55
20 57 0 1 -22 2 -50 2 l-50 0 -1 -47z"/>
</g>
</svg>
